<svg width="40" height="40" viewBox="0 0 40 40" xmlns="http://www.w3.org/2000/svg"><title>instagram</title><desc>Created with Sketch.</desc><g transform="translate(0 .031)" fill="#093c4f" fill-rule="nonzero"><circle cx="19.948" cy="19.931" r="8.312"/><g><path d="M11.824 11.729c2.198-2.198 5.12-3.421 8.228-3.421 3.108 0 6.03 1.23 8.228 3.428 1.394 1.394 2.391 3.07 2.933 4.94h8.735v-11.74c0-2.754-2.129-4.883-4.883-4.883h-29.922c-2.754 0-5.091 2.129-5.091 4.883v11.74h8.839c.543-1.87 1.539-3.552 2.933-4.947zm24.799-3.032c0 .734-.595 1.33-1.33 1.33h-3.99c-.734 0-1.33-.595-1.33-1.33v-3.99c0-.734.595-1.33 1.33-1.33h3.99c.734 0 1.33.595 1.33 1.33v3.99zM28.28 28.185c-2.198 2.198-5.12 3.395-8.228 3.395-3.108 0-6.03-1.191-8.228-3.389-2.194-2.194-3.404-5.178-3.408-8.191h-8.364v14.857c0 2.754 2.337 5.091 5.091 5.091h29.922c2.754 0 4.883-2.337 4.883-5.091v-14.857h-8.26c-.004 3.013-1.214 5.991-3.408 8.185z"/></g></g></svg>