<svg width="34" height="40" viewBox="0 0 34 40" xmlns="http://www.w3.org/2000/svg"><title>apple</title><desc>Created with Sketch.</desc><g fill="#093c4f" fill-rule="nonzero"><path d="M25.265 9.371c-3.491 0-4.966 1.714-7.397 1.714-2.494 0-4.395-1.704-7.418-1.704-2.961 0-6.119 1.86-8.125 5.029-2.816 4.468-2.338 12.883 2.223 20.052 1.631 2.566 3.813 5.444 6.67 5.475h.052c2.483 0 3.221-1.673 6.639-1.694h.052c3.366 0 4.042 1.683 6.514 1.683h.052c2.857-.031 5.153-3.221 6.784-5.777 1.174-1.839 1.61-2.764 2.514-4.842-6.597-2.577-7.657-12.197-1.132-15.886-1.995-2.566-4.79-4.052-7.429-4.052zM24.496.031c-2.078.145-4.499 1.506-5.922 3.283-1.288 1.61-2.348 4-1.932 6.317h.166c2.213 0 4.478-1.371 5.797-3.127 1.278-1.673 2.244-4.042 1.891-6.473z"/></g></svg>