<svg width="40" height="41" viewBox="0 0 40 41" xmlns="http://www.w3.org/2000/svg"><title>spotify</title><desc>Created with Sketch.</desc><path d="M31.739 18.219c-6.314-3.75-16.73-4.095-22.758-2.265-.968.294-1.992-.253-2.285-1.221-.293-.969.253-1.992 1.221-2.286 6.92-2.1 18.422-1.695 25.692 2.62.871.517 1.156 1.641.64 2.511-.516.871-1.642 1.158-2.51.641zm-.207 5.554c-.443.719-1.383.944-2.101.503-5.264-3.236-13.292-4.173-19.52-2.283-.808.244-1.661-.211-1.906-1.018-.243-.807.212-1.659 1.018-1.905 7.115-2.159 15.959-1.113 22.006 2.602.718.442.944 1.382.502 2.1zm-2.397 5.334c-.352.577-1.104.758-1.679.406-4.6-2.811-10.39-3.446-17.209-1.889-.657.151-1.312-.261-1.462-.918-.15-.657.26-1.312.918-1.462 7.462-1.706 13.863-.972 19.026 2.183.576.352.757 1.104.405 1.679zm-8.984-28.254c-10.818 0-19.589 8.77-19.589 19.589 0 10.82 8.771 19.589 19.589 19.589 10.819 0 19.589-8.77 19.589-19.589 0-10.818-8.77-19.589-19.589-19.589z" fill="#093c4f"/></svg>